#!OML:ASF F:\VICON\USERDATA\INSTALL\rory3\rory3.ASF
:FULLY-SPECIFIED
:DEGREES
1417
root 0.25846 15.5735 -1.77454 -0.76999 -4.08491 3.54639
lowerback 20.2145 -2.41768 3.79173
upperback 5.56828 -2.01889 5.91719
thorax -5.1566 -1.02263 4.71209
lowerneck -6.42081 -7.98205 -13.8807
upperneck 12.1733 -11.2662 14.7409
head 6.37549 -5.22227 6.06611
rclavicle -3.4191e-014 -7.95139e-015
rhumerus 15.745 9.79658 1.96239
rradius 57.2138
rwrist -56.6245
rhand -4.11099 9.58237
rfingers 7.12502
rthumb 21.6474 -19.2275
lclavicle -3.4191e-014 -7.95139e-015
lhumerus 35.312 -8.91389 -0.0375225
lradius 113.705
lwrist 90.4582
lhand -5.67754 16.8571
lfingers 7.12502
lthumb 20.1423 45.8329
rfemur -21.5444 7.76935 11.6736
rtibia 40.6045
rfoot -14.7548 -6.06755
rtoes -15.0947
lfemur -16.1691 1.50906 -19.2004
ltibia 32.2376
lfoot -10.2136 -0.783258
ltoes -7.79596
1418
root 0.256706 15.5734 -1.76787 -0.721639 -4.0887 3.45114
lowerback 20.171 -2.36497 3.9345
upperback 5.50596 -1.91638 5.97926
thorax -5.20897 -0.972921 4.67394
lowerneck -6.49296 -8.09176 -13.8099
upperneck 11.8807 -11.3859 14.7455
head 6.3118 -5.27696 6.03706
rclavicle 2.22639e-014 -4.29375e-014
rhumerus 15.5815 9.08379 1.5572
rradius 55.6956
rwrist -55.8679
rhand -4.08876 9.48462
rfingers 7.12502
rthumb 21.6687 -19.3228
lclavicle 2.22639e-014 -4.29375e-014
lhumerus 35.2178 -8.91555 -0.089778
lradius 115.479
lwrist 91.0795
lhand -5.68117 16.946
lfingers 7.12502
lthumb 20.1388 45.9221
rfemur -21.5697 7.8156 11.7928
rtibia 40.6098
rfoot -14.7926 -6.10421
rtoes -15.1366
lfemur -16.2138 1.5491 -19.0823
ltibia 32.2633
lfoot -10.2102 -0.827372
ltoes -7.77681
1419
root 0.257357 15.5743 -1.75396 -0.761683 -4.06 3.62402
lowerback 20.086 -2.34486 3.83392
upperback 5.44592 -1.91311 5.97104
thorax -5.22719 -0.970418 4.71915
lowerneck -6.46506 -8.1333 -13.7943
upperneck 11.5742 -11.4094 14.7109
head 6.21228 -5.29485 6.01891
rclavicle -1.59028e-015 -3.65764e-014
rhumerus 15.5966 8.3005 1.02478
rradius 54.2033
rwrist -55.0898
rhand -4.08293 9.16009
rfingers 7.12502
rthumb 21.6743 -19.6467
lclavicle -1.59028e-015 -3.65764e-014
lhumerus 34.9532 -8.92206 -0.116258
lradius 117.239
lwrist 91.7819
lhand -5.5043 16.9682
lfingers 7.12502
lthumb 20.3088 45.9264
rfemur -21.4809 7.71143 11.6031
rtibia 40.6539
rfoot -14.9097 -6.03388
rtoes -15.2721
lfemur -16.1132 1.55659 -19.2872
ltibia 32.2687
lfoot -10.3303 -0.853405
ltoes -7.92538
1420
root 0.256053 15.5735 -1.7442 -0.784025 -4.00006 3.76899
lowerback 20.0776 -2.34628 3.70278
upperback 5.31422 -1.93049 5.99165
thorax -5.35987 -0.977029 4.82585
lowerneck -6.33669 -8.1364 -13.8629
upperneck 11.2711 -11.3891 14.7183
head 6.09736 -5.29712 6.03758
rclavicle 1.59028e-014 -6.67916e-014
rhumerus 15.7522 7.54186 0.425681
rradius 52.7014
rwrist -54.2708
rhand -4.17151 8.7191
rfingers 7.12502
rthumb 21.5893 -20.0975
lclavicle 1.59028e-014 -6.67916e-014
lhumerus 34.58 -9.04643 -0.151047
lradius 118.925
lwrist 92.3815
lhand -5.35462 16.7427
lfingers 7.12502
lthumb 20.4527 45.6855
rfemur -21.4578 7.6517 11.4471
rtibia 40.7243
rfoot -14.9805 -6.00192
rtoes -14.9728
lfemur -16.0516 1.53947 -19.4475
ltibia 32.2517
lfoot -10.4043 -0.882892
ltoes -8.13764
1421
root 0.253884 15.5702 -1.73684 -0.786728 -3.98622 3.71232
lowerback 20.1109 -2.36234 3.71776
upperback 5.23459 -1.93664 6.04052
thorax -5.46195 -0.979427 4.87786
lowerneck -6.57497 -8.11987 -13.7993
upperneck 11.1415 -11.3279 14.6872
head 6.08406 -5.25856 6.01454
rclavicle 4.29375e-014 -1.59028e-014
rhumerus 16.0478 6.55415 -0.372261
rradius 51.0376
rwrist -53.2323
rhand -4.11353 8.44489
rfingers 7.12502
rthumb 21.6449 -20.3653
lclavicle 4.29375e-014 -1.59028e-014
lhumerus 34.1679 -9.04143 -0.2776
lradius 120.511
lwrist 92.8764
lhand -5.19857 16.5136
lfingers 7.12502
lthumb 20.6026 45.4402
rfemur -21.4503 7.68328 11.5255
rtibia 40.7744
rfoot -15.0281 -6.03456
rtoes -15.0341
lfemur -16.0434 1.54296 -19.3756
ltibia 32.2782
lfoot -10.3965 -0.892877
ltoes -8.44273
1422
root 0.251531 15.569 -1.72617 -0.801815 -3.98048 3.74965
lowerback 20.0317 -2.38667 3.60817
upperback 5.27153 -2.00144 6.01323
thorax -5.37422 -1.011 4.92005
lowerneck -7.15366 -8.08602 -13.4607
upperneck 11.0956 -11.2259 14.5194
head 6.12562 -5.18162 5.89451
rclavicle -1.74931e-014 -1.90833e-014
rhumerus 16.2996 5.28606 -1.25116
rradius 49.4012
rwrist -52.1326
rhand -3.80345 8.54592
rfingers 7.12502
rthumb 21.9427 -20.2296
lclavicle -1.74931e-014 -1.90833e-014
lhumerus 33.7026 -8.90592 -0.552204
lradius 122.026
lwrist 93.0947
lhand -4.93964 16.285
lfingers 7.12502
lthumb 20.8514 45.1844
rfemur -21.3979 7.66071 11.5073
rtibia 40.7916
rfoot -15.0797 -6.0574
rtoes -15.5619
lfemur -16.0281 1.51222 -19.4085
ltibia 32.3698
lfoot -10.4496 -0.88403
ltoes -8.34444
